<?xml version="1.0" encoding="UTF-8"?>
<svg version="1.1" xmlns="http://www.w3.org/2000/svg" width="600" height="600">
    <path d="M0 0 C198 0 396 0 600 0 C600 198 600 396 600 600 C402 600 204 600 0 600 C0 402 0 204 0 0 Z " fill="#000000"
        transform="translate(0,0)" />
    <path
        d="M0 0 C132 0 264 0 400 0 C400 33 400 66 400 100 C334 100 268 100 200 100 C200 133 200 166 200 200 C167 200 134 200 100 200 C100 266 100 332 100 400 C67 400 34 400 0 400 C0 268 0 136 0 0 Z "
        fill="#FFFFFF" transform="translate(100,100)" />
    <path
        d="M0 0 C33 0 66 0 100 0 C100 66 100 132 100 200 C34 200 -32 200 -100 200 C-100 167 -100 134 -100 100 C-67 100 -34 100 0 100 C0 67 0 34 0 0 Z "
        fill="#004E52" transform="translate(400,300)" />
    <path d="M0 0 C33 0 66 0 100 0 C100 66 100 132 100 200 C67 200 34 200 0 200 C0 134 0 68 0 0 Z " fill="#808080"
        transform="translate(100,300)" />
    <path d="M0 0 C66 0 132 0 200 0 C200 33 200 66 200 100 C134 100 68 100 0 100 C0 67 0 34 0 0 Z " fill="#808080"
        transform="translate(300,100)" />
    <path d="M0 0 C33 0 66 0 100 0 C100 33 100 66 100 100 C67 100 34 100 0 100 C0 67 0 34 0 0 Z " fill="#10A7B2"
        transform="translate(300,400)" />
    <path d="M0 0 C33 0 66 0 100 0 C100 33 100 66 100 100 C67 100 34 100 0 100 C0 67 0 34 0 0 Z " fill="#10A7B2"
        transform="translate(400,300)" />
    <path d="M0 0 C33 0 66 0 100 0 C100 33 100 66 100 100 C67 100 34 100 0 100 C0 67 0 34 0 0 Z " fill="#004E52"
        transform="translate(300,300)" />
    <path d="M0 0 C33 0 66 0 100 0 C100 33 100 66 100 100 C67 100 34 100 0 100 C0 67 0 34 0 0 Z " fill="#808080"
        transform="translate(200,200)" />
    <path d="M0 0 C33 0 66 0 100 0 C100 33 100 66 100 100 C67 100 34 100 0 100 C0 67 0 34 0 0 Z " fill="#FFFFFF"
        transform="translate(100,200)" />
    <path d="M0 0 C33 0 66 0 100 0 C100 33 100 66 100 100 C67 100 34 100 0 100 C0 67 0 34 0 0 Z " fill="#808080"
        transform="translate(100,100)" />
</svg>