<svg width="281" height="321" viewBox="0 0 281 321" fill="none" xmlns="http://www.w3.org/2000/svg">
  <path fill-rule="evenodd" clip-rule="evenodd" d="M149.739.36H131.28v78.16L39.37 0l.01 89.313H0v136.19h39.418v90.432l91.862-85.044V321h18.459v-90.134l91.885 85.067v-90.43H281V89.313h-39.375V0l-91.86 78.52zm91.885 206.739v-32.594l-81.425-66.771 102.342-.017v99.382zM223.166 89.313V40.015l-62.967 49.298zm-73.401 30.331v86.13l73.4 67.955-.003-86.134zM57.84 89.313h62.98L57.834 40.016zm73.44 30.289L57.877 187.56v86.172l73.403-67.955zM18.459 107.717l102.361.017-76.518 67.278-4.923 4.558v27.529H18.46z" fill="#10a7b2"/>
</svg>
